<?xml version="1.0" standalone="no"?>
<!DOCTYPE svg PUBLIC "-//W3C//DTD SVG 20010904//EN"
 "http://www.w3.org/TR/2001/REC-SVG-20010904/DTD/svg10.dtd">
<svg version="1.0" xmlns="http://www.w3.org/2000/svg"
 width="1788.000000pt" height="1554.000000pt" viewBox="0 0 1788.000000 1554.000000"
 preserveAspectRatio="xMidYMid meet">
<metadata>
Created by potrace 1.16, written by Peter Selinger 2001-2019
</metadata>
<g transform="translate(0.000000,1554.000000) scale(0.100000,-0.100000)"
fill="#0F766E" stroke="none">
<path d="M12222 15515 c-20 -14 -61 -28 -105 -35 -306 -52 -671 -325 -807
-605 -191 -393 -202 -783 -33 -1120 140 -277 438 -537 698 -610 33 -9 87 -27
120 -38 91 -33 438 -33 535 0 36 12 94 29 129 38 231 59 540 309 673 546 192
342 197 815 13 1179 -146 290 -503 558 -812 611 -37 6 -90 22 -116 35 -71 35
-245 34 -295 -1z"/>
<path d="M17679 14119 c-70 -50 -205 -166 -314 -268 -55 -51 -127 -112 -160
-134 -33 -22 -89 -63 -125 -91 -469 -370 -1322 -817 -1860 -975 -58 -17 -150
-44 -205 -61 -55 -17 -138 -39 -185 -50 -47 -10 -105 -26 -130 -35 -25 -9 -79
-20 -120 -26 -41 -5 -104 -18 -140 -30 -38 -11 -115 -24 -185 -29 -66 -4 -163
-19 -215 -32 -147 -36 -1192 -36 -1339 0 -52 13 -143 27 -202 32 -59 5 -139
18 -176 29 -37 11 -102 24 -144 30 -42 6 -99 18 -125 27 -27 9 -89 27 -139 40
-193 51 -243 65 -325 94 -177 61 -286 102 -651 249 -549 219 -906 343 -1209
417 -36 9 -106 27 -157 40 -50 14 -131 29 -180 35 -48 5 -117 19 -153 30 -48
15 -111 23 -235 29 -93 5 -225 14 -292 20 -89 8 -152 8 -230 0 -59 -6 -187
-15 -283 -20 -123 -6 -196 -15 -245 -29 -39 -11 -110 -25 -157 -31 -47 -5
-112 -19 -144 -31 -33 -11 -92 -24 -132 -29 -250 -32 -893 -297 -1286 -529
-72 -43 -158 -93 -191 -111 -152 -85 -475 -312 -586 -412 -41 -37 -106 -91
-145 -120 -157 -119 -244 -210 -244 -258 0 -43 43 -31 570 168 268 100 472
165 575 183 39 6 91 20 116 30 26 10 84 23 130 29 46 6 113 20 149 31 36 11
117 24 180 29 63 4 167 19 230 31 184 37 685 35 885 -3 77 -15 167 -31 200
-36 532 -79 1104 -434 1402 -868 114 -166 245 -466 273 -626 7 -35 22 -105 36
-157 14 -55 24 -122 24 -165 0 -39 7 -134 15 -211 17 -167 19 -279 4 -360 -5
-33 -14 -150 -19 -260 -6 -151 -13 -216 -28 -267 -11 -37 -25 -108 -31 -156
-6 -49 -20 -114 -30 -145 -11 -31 -23 -78 -27 -104 -3 -26 -17 -82 -30 -123
-13 -42 -28 -109 -34 -149 -24 -171 -116 -444 -325 -966 -371 -926 -859 -1806
-1421 -2567 -27 -36 -79 -108 -116 -160 -37 -51 -87 -120 -111 -153 -24 -33
-73 -91 -109 -130 -35 -38 -96 -113 -135 -165 -38 -52 -115 -142 -169 -200
-55 -58 -132 -144 -171 -191 -205 -246 -685 -729 -968 -974 -76 -66 -184 -162
-239 -214 -56 -51 -146 -127 -201 -169 -55 -41 -129 -101 -165 -132 -36 -32
-105 -88 -155 -125 -49 -38 -115 -89 -145 -115 -30 -26 -89 -71 -130 -100 -41
-29 -98 -72 -126 -94 -79 -63 -257 -183 -503 -339 -123 -78 -258 -164 -300
-191 -399 -255 -1185 -671 -1576 -834 -104 -44 -262 -112 -350 -152 -196 -88
-451 -191 -690 -277 -99 -36 -223 -81 -275 -100 -87 -31 -158 -55 -425 -142
-49 -17 -117 -35 -149 -40 -71 -13 -121 -40 -121 -66 0 -40 103 -45 209 -11
41 14 107 28 148 31 40 4 111 17 158 30 47 13 115 26 151 29 37 4 93 15 125
26 32 11 87 25 123 30 36 6 89 18 116 27 28 9 86 24 130 33 44 9 116 27 160
40 154 44 321 92 395 115 41 12 131 39 200 60 389 116 532 168 1015 363 651
264 1382 617 1870 901 83 49 191 110 240 138 229 127 979 602 1095 694 25 19
65 48 90 64 25 16 74 52 110 80 36 28 93 70 127 93 34 23 92 68 130 100 37 33
102 83 143 112 41 29 98 72 125 95 28 23 78 61 113 84 35 24 102 79 150 123
48 44 122 105 166 136 43 30 140 113 215 183 75 69 204 183 286 252 233 194
923 894 1136 1152 41 50 95 113 120 141 25 28 72 86 104 130 32 43 86 111 120
149 34 39 86 104 115 145 30 41 81 107 115 145 34 39 86 104 115 145 29 41 72
98 94 125 23 28 69 88 101 135 32 47 94 136 137 199 201 291 325 491 622 1006
155 268 460 876 580 1155 316 736 396 892 616 1202 183 258 465 538 710 706
248 170 465 276 1162 567 729 306 1480 728 2024 1140 242 182 827 763 964 956
29 41 69 94 90 119 171 211 487 771 466 826 -9 23 -40 16 -87 -17z"/>
<path d="M2505 12530 c-49 -5 -160 -16 -245 -25 -85 -9 -225 -19 -310 -24
-217 -11 -246 -30 -271 -175 -6 -39 -20 -98 -30 -131 -10 -33 -23 -97 -29
-142 -6 -45 -20 -108 -31 -140 -10 -31 -24 -96 -29 -143 -5 -47 -18 -111 -29
-142 -11 -31 -24 -94 -30 -140 -5 -45 -19 -112 -30 -148 -12 -36 -25 -104 -31
-151 -5 -47 -18 -110 -29 -141 -11 -31 -25 -91 -31 -133 -6 -43 -18 -96 -27
-119 -8 -22 -23 -86 -34 -141 -10 -55 -28 -131 -38 -170 -11 -38 -20 -86 -20
-106 -1 -19 -12 -73 -26 -118 -14 -46 -29 -119 -35 -163 -5 -44 -19 -109 -30
-146 -12 -37 -25 -110 -30 -162 -4 -52 -20 -139 -34 -194 -14 -54 -26 -110
-26 -125 0 -15 -11 -66 -25 -114 -14 -48 -30 -120 -35 -160 -5 -39 -18 -100
-29 -134 -11 -34 -25 -97 -31 -139 -5 -43 -19 -106 -30 -141 -11 -35 -24 -98
-29 -141 -6 -42 -19 -106 -30 -142 -11 -36 -25 -94 -31 -130 -6 -36 -20 -92
-30 -125 -11 -33 -24 -100 -30 -150 -5 -49 -19 -119 -31 -155 -11 -36 -24
-110 -29 -165 -5 -55 -18 -126 -29 -158 -11 -31 -25 -90 -30 -130 -6 -39 -19
-98 -30 -130 -11 -31 -23 -85 -26 -120 -4 -34 -17 -100 -31 -147 -13 -47 -28
-117 -33 -155 -6 -39 -19 -100 -30 -135 -11 -36 -25 -103 -31 -149 -6 -46 -20
-111 -31 -145 -10 -33 -23 -101 -29 -151 -5 -49 -18 -116 -29 -147 -11 -31
-25 -91 -31 -133 -6 -42 -20 -102 -31 -133 -11 -31 -24 -95 -29 -142 -5 -47
-18 -111 -29 -142 -10 -30 -24 -87 -30 -125 -6 -39 -20 -100 -31 -136 -11 -36
-25 -102 -30 -145 -6 -44 -20 -106 -31 -138 -11 -34 -24 -106 -29 -169 -5 -60
-16 -130 -25 -155 -8 -24 -22 -82 -30 -128 -15 -87 -24 -111 -49 -132 -12 -9
-16 -33 -16 -101 l0 -89 935 0 c1115 0 1015 -15 1049 155 9 44 25 112 35 150
11 39 20 86 20 106 1 20 13 77 27 125 14 49 30 127 34 174 5 47 18 110 28 141
11 30 25 94 31 140 6 47 20 110 30 140 11 30 24 91 31 136 6 45 19 107 30 138
11 31 24 91 30 135 6 44 19 104 30 134 10 30 23 94 29 144 6 49 20 115 31 147
11 32 24 95 30 139 5 45 18 106 29 137 10 31 24 88 30 127 6 38 20 98 31 133
11 35 24 103 30 150 5 47 19 111 29 142 11 32 25 93 31 137 6 44 20 105 31
137 10 31 24 96 29 143 5 48 17 107 25 131 9 24 23 84 31 134 8 49 24 117 34
150 10 33 23 96 30 138 6 43 20 104 31 135 11 30 24 92 29 136 5 45 19 110 30
145 11 36 25 104 30 152 5 48 18 118 29 156 11 37 25 109 31 159 5 51 19 120
29 155 11 35 25 100 30 145 12 100 55 231 86 263 42 44 107 -6 200 -154 21
-33 126 -192 234 -353 108 -162 220 -330 249 -375 109 -170 201 -316 267 -421
110 -177 361 -568 392 -612 69 -95 282 -417 398 -603 600 -958 730 -1066 1290
-1066 241 0 265 2 330 22 39 12 103 27 143 33 147 21 319 142 431 305 22 33
59 85 80 115 22 30 96 143 166 250 70 107 137 209 148 225 38 53 451 675 543
818 151 233 378 577 656 996 54 80 145 220 202 311 57 91 135 210 172 265 309
455 358 545 388 724 18 108 21 273 6 352 -6 30 -14 101 -19 159 -17 208 -122
502 -250 698 -197 301 -631 585 -767 501 -52 -32 -453 -613 -774 -1122 -35
-56 -123 -192 -195 -302 -73 -110 -180 -276 -239 -370 -108 -171 -309 -482
-564 -870 -76 -115 -153 -235 -171 -265 -164 -281 -224 -334 -295 -264 -28 29
-288 425 -420 641 -45 73 -157 249 -251 392 -338 518 -442 680 -523 816 -39
66 -126 204 -194 307 -128 196 -231 357 -379 593 -82 131 -234 367 -391 607
-202 311 -536 551 -832 598 -34 5 -97 19 -141 30 -93 25 -324 34 -470 20z"/>
<path d="M11810 7700 c-11 -11 -59 -97 -106 -192 -186 -372 -544 -953 -882
-1428 -139 -196 -206 -293 -224 -325 -44 -78 -11 -129 186 -285 262 -209 482
-638 502 -980 33 -547 -59 -904 -343 -1338 -90 -136 -397 -455 -538 -557 -44
-32 -105 -77 -135 -100 -249 -189 -673 -421 -950 -521 -179 -65 -521 -174
-545 -174 -9 0 -56 -13 -105 -29 -49 -17 -124 -35 -167 -41 -132 -18 -192 -65
-116 -91 77 -26 789 -19 903 9 52 13 149 27 215 32 76 5 142 16 179 29 32 11
94 25 139 31 113 14 538 138 812 236 438 157 1010 575 1270 929 33 44 80 105
106 135 182 214 469 784 469 930 0 10 12 56 26 100 14 45 30 109 35 143 6 34
19 91 30 127 11 36 24 119 29 185 5 66 18 163 29 215 38 184 35 397 -9 650
-11 63 -20 147 -21 185 0 39 -9 102 -20 140 -10 39 -24 97 -30 130 -14 79 -33
157 -68 285 -16 58 -41 148 -56 200 -14 52 -73 212 -131 355 -120 295 -184
462 -279 720 -36 99 -72 199 -81 222 -32 88 -81 116 -124 73z"/>
</g>
</svg>
